<svg xmlns="http://www.w3.org/2000/svg" width="800" height="500" viewBox="0 0 800 500">
  <rect width="800" height="500" fill="#0a0a0a"/>
  <rect x="0" y="0" width="800" height="4" fill="#39ff14"/>
  <rect x="0" y="496" width="800" height="4" fill="#39ff14"/>
  <!-- Dumbbell icon -->
  <circle cx="400" cy="200" r="80" fill="none" stroke="#39ff14" stroke-width="3" opacity="0.6"/>
  <!-- Dumbbell bar -->
  <rect x="340" y="196" width="120" height="8" rx="4" fill="#39ff14" opacity="0.9"/>
  <!-- Left weight plates -->
  <rect x="330" y="182" width="14" height="36" rx="3" fill="#39ff14" opacity="0.9"/>
  <rect x="317" y="186" width="14" height="28" rx="3" fill="#39ff14" opacity="0.7"/>
  <!-- Right weight plates -->
  <rect x="456" y="182" width="14" height="36" rx="3" fill="#39ff14" opacity="0.9"/>
  <rect x="469" y="186" width="14" height="28" rx="3" fill="#39ff14" opacity="0.7"/>
  <!-- Grip marks -->
  <rect x="375" y="194" width="4" height="12" rx="2" fill="#0a0a0a" opacity="0.6"/>
  <rect x="384" y="194" width="4" height="12" rx="2" fill="#0a0a0a" opacity="0.6"/>
  <rect x="417" y="194" width="4" height="12" rx="2" fill="#0a0a0a" opacity="0.6"/>
  <rect x="426" y="194" width="4" height="12" rx="2" fill="#0a0a0a" opacity="0.6"/>
  <text x="400" y="340" font-family="Arial, sans-serif" font-size="32" font-weight="bold" fill="#39ff14" text-anchor="middle">Weight Lifting</text>
  <text x="400" y="380" font-family="Arial, sans-serif" font-size="16" fill="#666" text-anchor="middle">Infinity Gym</text>
</svg>
